# xmcd
#
# Track frame offsets: 
#        150
#        58497
#        88427
#        104122
#        123717
#        139335
#        172525
#        198000
#        234062
#
# Disc length: 3798 seconds
#
# Revision: 0
# Processed by: cddbd v1.5.2PL0 Copyright (c) Steve Scherf et al.
# Submitted via: ExactAudioCopy v0.95b4
#
DISCID=7f0ed409
DTITLE=Big Joe Turner - Stormy Monday
DYEAR=1900
DGENRE=Blues
TTITLE0=I´ve Got A Pocketful Of Pencils
TTITLE1=Stormy Monday Blues
TTITLE2=Roll´Em Pete
TTITLE3=When The Sun Goes Down
TTITLE4=How Long Blues
TTITLE5=Chains Of Love
TTITLE6=CorrineCorrina
TTITLE7=I Hear You Knockin´
TTITLE8=Give Me An Hour In Your Garden
EXTD=
EXTT0=
EXTT1=
EXTT2=
EXTT3=
EXTT4=
EXTT5=
EXTT6=
EXTT7=
EXTT8=
PLAYORDER=
